# xmcd CD database file
#
# Track frame offsets:
#	150
#	9468
#	35088
#	63677
#	83624
#	106731
#	134420
#	149399
#	166217
#	182479
#	207443
#
# Disc length: 3058 seconds
#
# Revision: 0
# Processed by: cddbd v1.5.1PL0 Copyright (c) Steve Scherf et al.
# Submitted via: CDex 1.50
#
DISCID=940bf00b
DTITLE=Two Banjo's Jazzband - feat. Keith Nichols - Live
DYEAR=1900
DGENRE=Jazz
TTITLE0=Sweet Georgia Brown
TTITLE1=Basin Street Blues
TTITLE2=Black and Blue
TTITLE3=Big Butter and Eggman
TTITLE4=Ain't Misbehavin'
TTITLE5=Fats Waller Medley: Honeysuckle Rose - Handful of Keys
TTITLE6=Copenhagen
TTITLE7=Dear Old Southland
TTITLE8=At the Jazzbandball
TTITLE9=Red Pepper Rag
TTITLE10=Who's Sorry Now
EXTD=
EXTT0=
EXTT1=
EXTT2=
EXTT3=
EXTT4=
EXTT5=
EXTT6=
EXTT7=
EXTT8=
EXTT9=
EXTT10=
PLAYORDER=
